<?xml version="1.0" encoding="UTF-8" standalone="no"?>
<!DOCTYPE svg PUBLIC "-//W3C//DTD SVG 1.1//EN" "http://www.w3.org/Graphics/SVG/1.1/DTD/svg11.dtd">
<svg width="1008pt" height="612pt" viewBox="0 0 1008 612" overflow="visible" version="1.1" xmlns="http://www.w3.org/2000/svg">
  <path d="M138.225,355.6998 C138.225,325.2058 138.225,292.6861 145.724,264.9327 C153.223,237.1794 168.2211,214.1925 187.9527,195.5947 C207.6843,176.9969 232.1495,162.7881 257.6544,151.123 C283.1594,139.4579 309.704,130.3364 336.6148,123.2091 C363.5256,116.0818 390.8026,110.9487 418.2589,107.5581 C445.7152,104.1676 473.3509,102.5196 500.9746,102.5094 C528.5984,102.5196 556.234,104.1676 583.6903,107.5581 C611.1466,110.9487 638.4236,116.0818 665.3344,123.2091 C692.2452,130.3364 718.7899,139.4579 744.2948,151.123 C769.7997,162.7881 794.265,176.9969 813.9966,195.5947 C833.7281,214.1925 848.7262,237.1794 856.2252,264.9327 C863.7242,292.6861 863.7242,325.2058 863.7242,355.6998 C863.7242,373.4914 863.7242,392.4649 856.2252,407.8652 C848.7262,423.2655 833.7281,435.0925 813.9966,445.1511 C794.265,455.2096 769.7997,463.4996 744.2948,470.3056 C718.7899,477.1115 692.2452,482.4334 665.3344,486.5918 C638.4236,490.7502 611.1466,493.7451 583.6903,495.7233 C556.234,497.7015 528.5984,498.663 500.9746,498.669 C473.3509,498.663 445.7152,497.7015 418.2589,495.7233 C390.8026,493.7451 363.5256,490.7502 336.6148,486.5918 C309.704,482.4334 283.1594,477.1115 257.6544,470.3056 C232.1495,463.4996 207.6843,455.2096 187.9527,445.1511 C168.2211,435.0925 153.223,423.2655 145.724,407.8652 C138.225,392.4649 138.225,373.4914 138.225,355.6998 z" stroke="#000000" stroke-width="0.24" fill-opacity="0" />
</svg>