<?xml version="1.0" encoding="UTF-8" standalone="no"?>
<!DOCTYPE svg PUBLIC "-//W3C//DTD SVG 1.1//EN" "http://www.w3.org/Graphics/SVG/1.1/DTD/svg11.dtd">
<svg width="1008pt" height="612pt" viewBox="0 0 1008 612" overflow="visible" version="1.1" xmlns="http://www.w3.org/2000/svg">
  <path d="M516.9994,451.7175 L258.3157,451.7175 C251.6114,451.867 243.5458,449.3148 237.9917,444.6561 C232.4375,439.9974 229.3949,433.2321 229.5731,427.6086 L229.5731,398.3423 C229.5731,386.5135 231.2351,374.7144 234.41,363.1728 C236.8356,354.3553 240.1441,345.688 244.5044,337.4351 C252.0317,323.1877 262.6935,310.1751 275.047,298.5069 C287.4416,286.7998 301.5393,276.4461 314.4185,266.6816 C329.519,255.2331 342.9445,244.5944 356.8479,234.5944 C388.5137,211.8185 422.6582,192.3553 516.9994,132.2186 C611.3406,192.3553 645.485,211.8185 677.1509,234.5944 C691.0543,244.5944 704.4798,255.2331 719.5803,266.6816 C732.4595,276.4461 746.5572,286.7998 758.9518,298.5069 C771.3053,310.1751 781.967,323.1877 789.4943,337.4351 C793.8546,345.688 797.1632,354.3553 799.5887,363.1728 C802.7637,374.7144 804.4257,386.5135 804.4257,398.3423 L804.4257,427.6086 C804.6039,433.2321 801.5612,439.9974 796.0071,444.6561 C790.453,449.3148 782.3874,451.867 775.683,451.7175 z" stroke="#000000" stroke-width="0.24" fill-opacity="0" />
</svg>