<?xml version="1.0" encoding="UTF-8" standalone="no"?>
<!DOCTYPE svg PUBLIC "-//W3C//DTD SVG 1.1//EN" "http://www.w3.org/Graphics/SVG/1.1/DTD/svg11.dtd">
<svg width="1008pt" height="612pt" viewBox="0 0 1008 612" overflow="visible" version="1.1" xmlns="http://www.w3.org/2000/svg">
  <path d="M497.4904,459.7929 L203.9374,459.7929 C196.3293,459.9991 187.1766,456.4796 180.8738,450.0553 C174.571,443.6309 171.1181,434.3016 171.3204,426.5468 L171.3204,386.1888 C171.3204,369.8769 173.2064,353.606 176.8093,337.6901 C179.5618,325.5309 183.3164,313.5788 188.2644,302.198 C196.8064,282.551 208.9052,264.6066 222.9239,248.5162 C236.9893,232.3722 252.9873,218.0946 269.9678,205.1735 C289.8768,190.024 311.1366,176.7394 333.4866,165.7439 C384.3905,140.7008 440.9505,127.5319 497.4904,127.5348 C554.0303,127.5319 610.5903,140.7008 661.4941,165.7439 C683.8442,176.7394 705.1039,190.024 725.013,205.1735 C741.9935,218.0946 757.9915,232.3722 772.0569,248.5162 C786.0756,264.6066 798.1744,282.551 806.7164,302.198 C811.6644,313.5788 815.4189,325.5309 818.1714,337.6901 C821.7744,353.606 823.6604,369.8769 823.6604,386.1888 L823.6604,426.5468 C823.8627,434.3016 820.4099,443.6309 814.1071,450.0553 C807.8043,456.4796 798.6515,459.9991 791.0434,459.7929 z" stroke="#000000" stroke-width="0.24" fill-opacity="0" />
</svg>