<?xml version="1.0" encoding="UTF-8" standalone="no"?>
<!-- Created with Inkscape (http://www.inkscape.org/) -->

<svg
   width="133.34641mm"
   height="133.34628mm"
   viewBox="0 0 133.34641 133.34628"
   version="1.1"
   id="svg1"
   xml:space="preserve"
   xmlns:inkscape="http://www.inkscape.org/namespaces/inkscape"
   xmlns:sodipodi="http://sodipodi.sourceforge.net/DTD/sodipodi-0.dtd"
   xmlns="http://www.w3.org/2000/svg"
   xmlns:svg="http://www.w3.org/2000/svg"><sodipodi:namedview
     id="namedview1"
     pagecolor="#ffffff"
     bordercolor="#000000"
     borderopacity="0.25"
     inkscape:showpageshadow="2"
     inkscape:pageopacity="0.0"
     inkscape:pagecheckerboard="0"
     inkscape:deskcolor="#d1d1d1"
     inkscape:document-units="mm"><inkscape:page
       x="1.0524623e-13"
       y="0"
       width="133.34641"
       height="133.34628"
       id="page2"
       margin="0"
       bleed="0" /></sodipodi:namedview><defs
     id="defs1" /><g
     inkscape:label="Camada 1"
     inkscape:groupmode="layer"
     id="layer1"
     transform="translate(-37.41154,-91.692898)"><g
       style="overflow:visible;stroke-width:14.1732;stroke-dasharray:none"
       id="g1"
       transform="matrix(0.35277778,0,0,0.35277778,-74.875845,52.707252)"><path
         d="m 507.2898,481.4133 c -14.6532,0 -29.3064,-1.7792 -43.5338,-5.2859 -14.2275,-3.5067 -28.0291,-8.7409 -41.0039,-15.5506 -12.9747,-6.8096 -25.1227,-15.1946 -36.0908,-24.9114 -10.968,-9.7168 -20.7563,-20.7653 -29.0803,-32.8246 -8.324,-12.0592 -15.1837,-25.1292 -20.3798,-38.8301 -5.196,-13.7009 -8.7285,-28.0326 -10.4948,-42.5789 -1.7662,-14.5462 -1.7662,-29.3069 0,-43.8532 1.7663,-14.5462 5.2988,-28.878 10.4948,-42.5789 5.1961,-13.7008 12.0558,-26.7708 20.3798,-38.8301 8.324,-12.0592 18.1122,-23.1078 29.0803,-32.8245 10.9681,-9.7168 23.1161,-18.1019 36.0908,-24.9115 12.9748,-6.8096 26.7764,-12.0438 41.0039,-15.5506 14.2274,-3.5067 28.8806,-5.2859 43.5338,-5.2859 14.6533,0 29.3065,1.7792 43.5339,5.2859 14.2274,3.5068 28.029,8.741 41.0038,15.5506 12.9747,6.8096 25.1227,15.1947 36.0908,24.9114 10.9681,9.7168 20.7563,20.7654 29.0803,32.8246 8.324,12.0593 15.1837,25.1293 20.3798,38.8301 5.1961,13.7009 8.7286,28.0327 10.4948,42.5789 1.7663,14.5463 1.7663,29.307 0,43.8532 -1.7662,14.5463 -5.2987,28.878 -10.4948,42.5789 -5.1961,13.7009 -12.0558,26.7709 -20.3798,38.8301 -8.324,12.0593 -18.1122,23.1078 -29.0803,32.8246 -10.9681,9.7168 -23.1161,18.1018 -36.0908,24.9114 -12.9748,6.8097 -26.7764,12.0439 -41.0038,15.5506 -14.2274,3.5067 -28.8806,5.2859 -43.5339,5.2859 z"
         stroke="#000000"
         stroke-width="0.24"
         fill-opacity="0"
         id="path1"
         style="stroke-width:14.1732;stroke-dasharray:none" /></g></g></svg>
