<?xml version="1.0" encoding="UTF-8" standalone="no"?><!DOCTYPE svg PUBLIC "-//W3C//DTD SVG 1.1//EN" "http://www.w3.org/Graphics/SVG/1.1/DTD/svg11.dtd"><svg width="100%" height="100%" viewBox="0 0 662555 631802" version="1.1" xmlns="http://www.w3.org/2000/svg" xmlns:xlink="http://www.w3.org/1999/xlink" xml:space="preserve" xmlns:serif="http://www.serif.com/" style="fill-rule:evenodd;clip-rule:evenodd;stroke-linejoin:round;stroke-miterlimit:2;"><path id="path91" d="M194044.783,334870.842c-2856.136,-16928.38 -6956.581,-31147.632 -15966.01,-55390.135c-6058.788,-16291.525 -13398.638,-35705.374 -17866.6,-47252.248c-5985.285,-15470.386 -9854.719,-27256.147 -11282.787,-34369.185c-1428.068,-7144.015 -1564.574,-15531.289 -320.265,-19821.793c850.54,-2922.289 3192.152,-6425.781 3974.439,-5942.758c220.51,136.506 1139.304,-31.501 2037.097,-369.618c1270.56,-479.348 2367.863,-465.697 4929.985,60.903c5418.258,1113.578 10043.728,3885.185 15404.233,9235.714c7297.847,7274.746 10894.268,13358.211 21914.543,37031.062c15472.486,33244.582 24266.655,50592.982 28608.611,56440.185l1953.093,2625.125l173.258,-3150.15c325.515,-5840.378 -939.795,-16649.067 -5213.498,-44627.123c-1149.805,-7507.857 -2667.127,-17548.96 -3375.911,-22313.562c-703.533,-4764.602 -1753.583,-11498.047 -2331.111,-14963.212c-6557.562,-39470.328 -7539.359,-47429.182 -7565.61,-61165.41c0,-11143.13 52.502,-12098.676 1349.314,-16847.527c2315.36,-8495.429 6599.564,-15586.942 10122.482,-16748.822c4588.718,-1515.222 13634.899,4218.576 19383.922,12287.685c7098.338,9962.349 10868.017,22982.969 16333.527,56485.338c4530.966,27778.022 14154.673,75116.899 16916.305,83216.459l892.542,2625.125l404.269,-3486.691c225.761,-1917.391 231.011,-34639.573 0,-72715.96c-210.01,-38076.387 -225.761,-73481.971 -52.502,-78679.719c456.772,-12271.409 1842.838,-19270.517 5397.257,-27218.345c2861.386,-6393.229 8064.384,-12756.007 10269.489,-12946.066c2289.109,-197.934 1323.063,747.636 -183.759,1737.308c-1391.316,911.968 -5124.244,7777.195 -6699.319,12316.561c-2126.351,6136.492 -1811.336,18016.757 645.781,24587.97c1244.309,3325.508 4320.956,6299.775 7040.585,6810.624c1055.3,197.409 3076.646,222.086 4494.214,54.078c8011.881,-948.72 10878.518,-6013.111 10295.74,-18205.241c-367.517,-7754.619 -2168.353,-15145.396 -4504.714,-18548.608c-1695.831,-2462.367 -6043.038,-6283.499 -8347.897,-7337.224c-1627.577,-745.01 -2320.61,-1781.41 714.034,-1498.946c2478.118,230.486 6321.301,2666.602 9408.448,5817.277c5329.004,5430.333 8531.656,11200.358 10978.272,19772.966c3449.414,12076.1 4089.945,23438.165 5528.513,97611.594c1071.051,55007.392 1916.341,73903.566 3213.153,71588.206c866.291,-1550.399 3743.428,-13379.737 7318.848,-30111.233c2037.097,-9529.203 4168.698,-19452.176 4730.475,-22051.049c567.027,-2598.874 2110.6,-10277.364 3423.163,-17063.312c1317.813,-6785.948 3932.437,-20134.708 5812.027,-29663.911c1874.339,-9529.203 4005.941,-20397.221 4735.725,-24151.149c1953.093,-10070.504 4667.472,-20587.28 6515.56,-25272.077c3538.668,-8968.477 8610.41,-16548.262 14196.675,-21226.235c2289.109,-1915.291 5980.035,-4177.099 6400.055,-2876.612c315.015,974.971 -1302.062,1476.37 -2861.386,3009.443c-3480.916,3420.538 -7350.35,8796.269 -9040.93,12565.948c-1706.331,3800.131 -3123.899,12718.73 -2824.634,17803.072c435.771,7603.412 3360.16,10961.472 9949.223,11438.194c3942.938,285.089 5260.75,-86.629 7607.612,-2143.677c3627.923,-3177.451 5644.019,-9269.841 6499.809,-19612.833c393.769,-4717.349 330.766,-6431.556 -315.015,-8925.425c-924.044,-3580.145 -2441.366,-8358.398 -6426.306,-11239.735c-2562.122,-1852.813 -3444.164,-3401.112 -2446.616,-3401.112c3066.146,0 10148.733,6801.699 13172.877,13129.3c3549.169,7427.528 4079.444,10607.08 4068.944,24413.662c0,13885.336 52.502,13355.585 -5434.009,49089.836c-9156.436,59653.338 -11566.3,81375.197 -11561.05,104212.208c0,17942.204 1527.823,30888.795 4793.478,40740.363c1659.079,5007.688 4074.194,9142.26 5339.504,9142.26c955.545,0 4053.193,-3378.536 6499.809,-7087.837c1144.554,-1732.582 4530.966,-7402.852 7528.858,-12600.6c9765.465,-16927.855 18654.138,-30394.221 25421.71,-38516.883c13508.893,-16212.246 31890.017,-26874.979 46496.212,-26968.958c7922.627,-52.502 11393.042,638.955 13162.376,2616.199c1911.091,2140.527 2362.612,4719.45 1580.325,8990.528c-934.544,5046.54 -3428.413,10925.245 -7817.622,18389.525c-21594.277,36736.523 -32719.557,65387.661 -46286.202,91223.615c-13603.397,25896.857 -32588.301,42046.101 -4620.22,-3494.041c11172.532,-18195.791 21615.278,-46945.634 35066.418,-69565.81c2231.356,-3753.929 4005.941,-6887.278 3942.938,-6962.356c-63.003,-75.079 -1149.805,227.336 -2409.865,672.032c-4226.451,1492.646 -9004.178,-146.482 -11151.531,-3830.057c-1302.062,-2228.731 -1359.815,-6846.851 -131.256,-10550.902c2131.601,-6405.83 11981.07,-18060.334 19058.407,-22542.998c3738.178,-2371.538 2987.392,-2691.278 -3291.907,-1394.466c-11072.777,2287.534 -21977.546,8454.477 -31911.018,18053.509c-11167.281,10787.688 -19462.676,22637.502 -32940.067,47031.213c-6814.824,12339.137 -9686.711,16701.045 -13004.869,19756.165c-4184.449,1818.687 -5539.014,4729.425 -13230.63,-4674.822l-1354.564,-3055.12c-5875.03,-13286.282 -7828.122,-42210.433 -4908.984,-72666.608c892.542,-9321.294 2604.124,-24154.824 3391.661,-29401.399c3108.148,-20716.961 7009.083,-45709.725 9922.972,-63528.023c3360.16,-20595.155 4310.455,-31257.887 3690.926,-41351.493l-409.519,-6688.293l-897.793,5250.25c-1638.078,9612.682 -3207.903,13495.242 -6988.082,17271.222c-3486.166,3486.691 -7828.122,4225.401 -14138.923,2406.189c-2514.87,-725.059 -5360.505,-3211.578 -6841.076,-5977.409c-1013.298,-1889.04 -1149.805,-2959.566 -1149.805,-8829.345l0,-6679.368l-897.793,2644.026c-1821.837,5353.68 -5066.491,21514.474 -9114.434,45366.884c-1323.063,7796.621 -3323.408,18900.899 -4436.461,24676.174c-1118.303,5775.275 -3008.393,15580.116 -4200.2,21788.537c-1197.057,6208.42 -2735.38,13886.911 -3428.413,17063.312c-693.033,3176.401 -2457.117,11427.694 -3927.187,18336.497c-4273.703,20075.905 -6662.567,26028.113 -10458.498,26028.113c-1806.086,0 -2955.891,-1256.385 -4242.202,-4633.345c-2194.604,-5774.75 -2924.389,-21025.675 -3643.673,-75957.989c-897.793,-68880.652 -1191.807,-77910.557 -2924.389,-89578.712c-409.519,-2777.382 -1312.562,-6793.823 -2000.345,-8925.425l-1254.81,-3875.734l262.512,6825.325c299.264,7794.521 -519.775,12241.482 -2877.137,15652.57c-2850.886,4118.296 -9319.193,6288.224 -15141.72,5079.617c-5775.275,-1198.632 -9901.971,-7195.992 -10589.754,-15376.932c-220.51,-2599.924 -456.772,-3413.712 -876.792,-2991.592c-677.282,679.907 -577.527,39635.186 220.51,87415.609c283.513,16748.297 666.782,39547.507 850.54,50664.911c441.021,26727.447 -446.271,35149.897 -3858.934,36706.597c-1181.306,537.626 -1596.076,483.023 -2740.63,-363.317c-3034.644,-2242.907 -5308.003,-8712.79 -9219.439,-26218.172c-3354.91,-15043.016 -6379.054,-31355.017 -12343.337,-66565.292c-4420.71,-26094.267 -5292.252,-30780.115 -7009.083,-37579.188c-1496.321,-5948.008 -5418.258,-16587.639 -5922.282,-16082.04c-84.004,84.004 178.508,1442.769 588.028,3018.369c1286.311,4977.237 1895.34,11619.328 1333.563,14578.894c-997.547,5269.676 -4032.192,9197.388 -8242.892,10667.458c-2814.134,982.847 -9481.951,877.842 -11461.295,-181.134c-3564.92,-1905.841 -6410.555,-6630.015 -7906.876,-13121.424c-756.036,-3281.931 -761.286,-3254.63 -509.274,4309.93c267.763,8146.288 1790.335,19061.032 5780.525,41476.973c7434.354,41754.712 13860.659,83661.156 14737.451,96079.572c567.027,8043.908 -1197.057,12075.575 -5276.501,12075.575c-4914.234,0 -10248.488,-9046.705 -27474.557,-46573.391c-3155.4,-6870.477 -6972.332,-15327.054 -8484.404,-18792.219c-7003.833,-16027.438 -12842.111,-26767.874 -17730.094,-32609.302l-1706.331,-2042.347l2173.603,4604.994c3864.184,8195.115 3323.408,14121.597 -1685.33,18410.001c-3444.164,2946.965 -8731.165,3842.133 -12406.34,2099.575c-2121.101,-1006.473 -5649.269,-5235.024 -6830.575,-8179.364c-1438.568,-3596.946 -1270.56,-1718.407 346.516,3864.184c1748.333,6040.412 4473.213,13106.199 18018.857,46666.32c9229.939,22861.163 12238.332,30685.085 17457.081,45414.661c5155.745,14548.967 6211.046,20467.049 9187.937,35439.186c12532.346,62991.447 4068.944,55325.032 -4777.727,2887.637l36.752,-0Zm272844.982,-61715.111c1963.593,-950.82 2829.885,-2059.673 7450.104,-9581.706c2871.887,-4679.023 5969.534,-9983.875 6877.827,-11788.386c1932.092,-3834.257 3375.911,-9530.778 2898.138,-11428.744c-719.284,-2877.137 -4320.956,-3739.753 -7219.093,-1729.957c-9681.461,6714.544 -20218.712,20283.29 -21137.506,27218.345c-866.291,6498.234 4940.485,10308.34 11130.53,7310.448Zm-298119.685,-66941.21c5675.52,-2372.588 7219.093,-7184.442 4641.221,-14483.864c-1601.326,-4545.666 -6237.297,-12183.205 -8384.649,-13821.808c-2483.368,-1892.19 -7255.845,-3951.863 -9733.963,-4198.1c-1989.845,-197.934 -2231.356,-81.904 -3029.394,1455.894c-1155.055,2219.806 -1491.071,8093.785 -740.285,12960.242c798.038,5207.198 4436.461,12768.083 7843.873,16303.076c2304.86,2392.014 2698.628,2597.299 4982.487,2597.299c1359.815,0 3349.659,-365.942 4420.71,-812.739Zm62267.963,-65837.083c2336.361,-542.876 5145.245,-3043.045 6410.555,-5708.072c2068.598,-4361.383 194.259,-18052.984 -3459.915,-25305.679c-2115.851,-4194.425 -8342.647,-9701.412 -12033.573,-10641.731c-1491.071,-380.118 -2016.096,169.583 -4215.951,4392.359c-2409.865,4630.195 -3333.909,8928.05 -3291.907,15238.325c78.754,10387.094 2892.888,18632.087 7376.601,21587.452c1554.074,1026.424 5806.776,1228.033 9214.188,437.346Zm-47446.508,117633.422c0,-894.118 6179.544,-6184.794 8463.403,-7245.87c2320.61,-1076.301 6237.297,-2021.346 6237.297,-1503.672c0,153.832 -1627.577,1099.402 -3617.422,2101.675c-1989.845,1002.273 -5192.497,3013.118 -7119.339,4469.538c-3664.674,2773.707 -3963.939,2939.615 -3963.939,2178.329Zm47252.248,-50711.638c0,-760.761 7969.879,-4020.641 11036.025,-4514.69c3344.409,-539.201 7560.36,-220.51 7093.087,536.576c-136.506,220.51 -1848.088,541.301 -3806.431,713.509c-2966.391,260.937 -6541.811,1140.354 -13403.888,3299.257c-509.274,159.083 -918.794,143.332 -918.794,-36.752l0,2.1Zm134763.412,-10852.266c-2866.636,-1476.37 -9502.952,-3070.346 -12779.108,-3070.346c-3192.152,0 -3748.678,-825.864 -913.543,-1357.19c4515.215,-847.915 11335.289,918.269 14910.709,3860.509c1821.837,1502.621 1181.306,1801.886 -1218.058,567.027Zm-78417.731,-13853.309c2341.611,-1328.838 8683.913,-2472.343 11765.81,-2122.676c2808.884,318.69 6442.057,1732.057 6442.057,2506.994c0,237.836 -1359.815,253.062 -3018.894,31.501c-3879.935,-511.374 -8941.175,-506.649 -13256.881,10.5c-3302.407,396.394 -3365.41,382.218 -1932.092,-429.47l0,3.15Z"/></svg>