<?xml version="1.0" encoding="UTF-8" standalone="no"?>
<svg
   data-name="Metal::Metal 01"
   viewBox="0 0 418.09 417.99999"
   version="1.1"
   id="svg6"
   sodipodi:docname="logo 3.svg"
   width="418.09"
   height="418"
   xmlns:inkscape="http://www.inkscape.org/namespaces/inkscape"
   xmlns:sodipodi="http://sodipodi.sourceforge.net/DTD/sodipodi-0.dtd"
   xmlns="http://www.w3.org/2000/svg"
   xmlns:svg="http://www.w3.org/2000/svg">
  <sodipodi:namedview
     id="namedview6"
     pagecolor="#ffffff"
     bordercolor="#000000"
     borderopacity="0.25"
     inkscape:showpageshadow="2"
     inkscape:pageopacity="0.0"
     inkscape:pagecheckerboard="0"
     inkscape:deskcolor="#d1d1d1">
    <inkscape:page
       x="0"
       y="0"
       width="418.09"
       height="418"
       id="page2"
       margin="0"
       bleed="0" />
  </sodipodi:namedview>
  <defs
     id="defs6">
    <linearGradient
       id="a"
       x1="111.39"
       x2="365.62"
       y1="124.54"
       y2="375.45999"
       gradientUnits="userSpaceOnUse"
       gradientTransform="translate(-29.45,-41)">
      <stop
         offset="0"
         stop-color="#fad2a4"
         id="stop1" />
      <stop
         offset=".03"
         stop-color="#f6cda0"
         id="stop2" />
      <stop
         offset=".35"
         stop-color="#ca9674"
         id="stop3" />
      <stop
         offset=".63"
         stop-color="#aa6e55"
         id="stop4" />
      <stop
         offset=".85"
         stop-color="#965641"
         id="stop5" />
      <stop
         offset=".98"
         stop-color="#8f4d3a"
         id="stop6" />
    </linearGradient>
  </defs>
  <path
     fill="url(#a)"
     stroke-miterlimit="10"
     d="m 418.09,209 c -11.1,-22.14 -29.74,-38.95 -51.2,-49.46 -3.06,-8.73 7.82,-15.57 14.35,-9 l 7.89,-6.87 q -24.22,-34.32 -51.64,-57.08 -1.65,-1.35 -3.19,-2.81 c -1,-1 -1.91,-2.1 -2.82,-3.19 Q 308.72,53.17 274.4,28.94 l -6.85,7.87 c 6.55,6.54 -0.29,17.42 -9,14.35 C 248,29.7 231.19,11.06 209.06,-3.8195926e-8 186.92,11.06 170.11,29.7 159.55,51.16 c -8.73,3.07 -15.57,-7.81 -9,-14.35 l -6.86,-7.89 Q 109.37,53.16 86.61,80.57 c -0.91,1.09 -1.85,2.16 -2.82,3.19 -0.97,1.03 -2.09,1.91 -3.19,2.81 q -27.4,22.76 -51.64,57.08 l 7.89,6.87 c 6.53,-6.55 17.41,0.29 14.35,9 C 29.74,170.03 11.1,186.84 -1.6727722e-8,208.98 11.1,231.12 29.74,247.93 51.2,258.44 c 3.06,8.73 -7.82,15.57 -14.35,9 l -7.89,6.87 q 24.23,34.32 51.64,57.08 1.65,1.35 3.19,2.81 c 1,1 1.91,2.1 2.82,3.19 q 22.76,27.42 57.08,51.65 l 6.86,-7.89 c -6.55,-6.54 0.29,-17.42 9,-14.35 10.52,21.46 27.33,40.1 49.47,51.2 22.13,-11.1 38.94,-29.74 49.46,-51.2 8.73,-3.07 15.57,7.81 9,14.35 l 6.86,7.89 q 34.32,-24.24 57.08,-51.65 c 0.91,-1.09 1.85,-2.16 2.82,-3.19 0.97,-1.03 2.09,-1.91 3.19,-2.81 q 27.4,-22.76 51.64,-57.08 l -7.89,-6.87 c -6.53,6.55 -17.41,-0.29 -14.35,-9 C 388.35,248 406.99,231.14 418.09,209 Z M 268.3,81.26 A 59.23,59.23 0 0 1 315.65,95 c 1.34,1.15 2.62,2.34 3.86,3.58 1.24,1.24 2.44,2.53 3.59,3.87 a 59.28,59.28 0 0 1 13.7,47.34 c -29.09,-6.62 -59.3,-3 -81,12.55 15.48,-21.79 19.13,-52 12.5,-81.08 z m -7.25,114 c 12.46,-16.62 39.35,-28.63 67.39,-26.4 a 59.25,59.25 0 0 1 -67.39,26.38 z m 67.39,53.92 c -28,2.23 -54.93,-9.78 -67.39,-26.4 a 59.25,59.25 0 0 1 67.39,26.38 z M 209.06,26.63 C 227.3,38.72 238.27,54 243.78,70 A 70.32,70.32 0 0 0 209.06,103.54 70.38,70.38 0 0 0 174.33,70 c 5.51,-16 16.48,-31.28 34.73,-43.37 z m 11.54,151.1 10.22,9.5 9.51,10.22 a 19.61,19.61 0 0 1 5.22,11.55 19.61,19.61 0 0 1 -5.18,11.55 l -9.51,10.22 -10.22,9.5 a 19.57,19.57 0 0 1 -11.54,5.19 19.57,19.57 0 0 1 -11.55,-5.19 l -10.22,-9.5 -9.51,-10.22 A 19.61,19.61 0 0 1 172.6,209 a 19.61,19.61 0 0 1 5.18,-11.55 l 9.51,-10.22 10.22,-9.5 a 19.57,19.57 0 0 1 11.55,-5.19 19.57,19.57 0 0 1 11.54,5.19 z M 168.89,89.61 a 59.25,59.25 0 0 1 26.4,67.4 c -16.61,-12.46 -28.63,-39.36 -26.4,-67.4 z M 70.08,243.73 C 54.08,238.21 38.77,227.25 26.68,209 38.77,190.75 54.09,179.79 70.08,174.27 A 70.36,70.36 0 0 0 103.61,209 70.36,70.36 0 0 0 70.08,243.73 Z m 19.59,-74.89 c 28,-2.23 54.93,9.78 67.39,26.4 a 59.25,59.25 0 0 1 -67.39,-26.4 z m 67.39,53.92 c -12.46,16.62 -39.35,28.63 -67.39,26.4 a 59.25,59.25 0 0 1 67.39,-26.4 z m -7.25,114 A 59.23,59.23 0 0 1 102.46,323 c -1.34,-1.15 -2.62,-2.34 -3.86,-3.58 -1.24,-1.24 -2.43,-2.53 -3.59,-3.87 a 59.28,59.28 0 0 1 -13.7,-47.34 c 29.09,6.62 59.3,3 81,-12.55 -15.48,21.79 -19.13,52 -12.5,81.08 z m -68.5,-187 a 59.28,59.28 0 0 1 13.7,-47.34 c 1.16,-1.34 2.35,-2.63 3.59,-3.87 1.24,-1.24 2.52,-2.43 3.86,-3.58 a 59.23,59.23 0 0 1 47.35,-13.7 c -6.63,29.08 -3,59.29 12.54,81 C 140.61,146.78 110.4,143.13 81.31,149.75 Z M 195.29,261 a 59.25,59.25 0 0 1 -26.4,67.4 c -2.23,-28.05 9.79,-54.95 26.4,-67.4 z m 13.77,130.38 C 190.81,379.28 179.84,364 174.33,348 a 70.38,70.38 0 0 0 34.73,-33.54 70.32,70.32 0 0 0 34.72,33.54 c -5.51,16 -16.48,31.28 -34.72,43.37 z m 40.16,-63 a 59.25,59.25 0 0 1 -26.4,-67.4 c 16.62,12.47 28.63,39.37 26.4,67.41 z M 222.82,157 a 59.25,59.25 0 0 1 26.4,-67.4 c 2.23,28.05 -9.78,54.95 -26.4,67.4 z M 323.1,315.59 q -1.73,2 -3.59,3.87 a 68.976,68.976 0 0 1 -3.86,3.58 59.23,59.23 0 0 1 -47.35,13.7 c 6.63,-29.08 3,-59.29 -12.54,-81 21.74,15.52 52,19.17 81,12.55 a 59.28,59.28 0 0 1 -13.66,47.3 z m 24.93,-71.86 A 70.36,70.36 0 0 0 314.55,209 70.36,70.36 0 0 0 348.08,174.27 c 16,5.52 31.31,16.48 43.4,34.73 -12.14,18.25 -27.46,29.21 -43.45,34.73 z"
     id="path6"
     style="fill:url(#a)" />
</svg>
